<svg width="438" height="348" viewBox="0 0 438 348" fill="none" xmlns="http://www.w3.org/2000/svg">
<g clip-path="url(#clip0)">
<path opacity="0.1" d="M256.872 58.8103C229.157 57.8474 202.758 48.9073 177.553 39.1241C152.348 29.3409 127.382 18.5007 100.332 13.3181C82.9333 9.9843 63.0339 9.51355 49.0183 18.8345C35.5251 27.8217 31.1658 43.2924 28.8235 57.6633C27.0592 68.4736 26.0229 79.8488 30.8575 89.97C34.2105 96.9971 40.167 102.903 44.2822 109.656C58.6147 133.074 48.4873 161.953 32.9558 184.819C25.676 195.548 17.2187 205.789 11.6005 217.198C5.98223 228.608 3.37866 241.699 8.29462 253.348C13.172 264.903 24.7896 273.565 37.3707 279.663C62.9311 292.053 93.0392 295.596 122.419 297.603C187.436 302.05 252.795 300.124 317.983 298.198C342.109 297.484 366.337 296.76 390.069 293.033C403.25 290.962 416.854 287.679 426.425 279.745C438.569 269.675 441.58 252.621 433.444 239.996C419.788 218.816 382.057 213.556 372.5 190.823C367.25 178.314 372.645 164.379 380.276 152.773C396.651 127.883 424.096 106.044 425.543 77.5934C426.536 58.0485 413.339 38.4822 392.938 29.2339C371.557 19.5064 341.899 20.7389 326.132 36.7832C309.885 53.3153 281.34 59.6576 256.872 58.8103Z" fill="#4C40F7"/>
<path d="M186.468 295.506L39.8972 294.792L25.3335 260.653L76.8311 256.917L67.8557 219.488L169.712 206.294L72.1764 172.408L80.7922 170.362L237.628 195.933L228.99 254.345L216.645 286.447L186.468 295.506Z" fill="#4C40F7"/>
<path d="M42.1454 280.494C42.1454 280.494 51.138 279.056 56.5335 285.407C56.5335 285.407 52.5768 288.522 44.0638 284.208L42.1454 280.494Z" fill="#4C40F7"/>
<path d="M41.2033 280.352C41.2033 280.352 35.4651 287.409 38.2914 295.267C38.2914 295.267 42.9675 293.397 43.4771 283.87L41.2033 280.352Z" fill="#4C40F7"/>
<path d="M36.0475 268.75C36.0475 268.75 39.6446 262.156 54.0327 271.387C54.0327 271.387 52.1143 275.82 45.7595 275.461C39.4048 275.101 37.7261 272.225 36.0475 268.75Z" fill="#4C40F7"/>
<path d="M35.1183 268.275C35.1183 268.275 27.6544 267.419 26.9307 284.495C26.9307 284.495 31.6625 285.475 35.0241 280.074C38.3856 274.673 37.0067 271.643 35.1183 268.275Z" fill="#4C40F7"/>
<path d="M30.7719 254.653C30.7719 254.653 34.9684 243.03 50.1959 251.298C50.1959 251.298 46.7187 261.963 32.3306 258.608L30.7719 254.653Z" fill="#4C40F7"/>
<path d="M26.0957 237.278C26.0957 237.278 34.0092 225.535 48.0377 236.422C48.0377 236.422 43.1217 247.447 27.2947 241.455L26.0957 237.278Z" fill="#4C40F7"/>
<path d="M24.4171 220.742C24.4171 220.742 33.6495 209.953 47.5409 220.742C47.5409 220.742 38.7881 230.208 24.4171 223.498V220.742Z" fill="#4C40F7"/>
<path d="M22.9783 204.68C22.9783 204.68 32.3306 193.417 45.6396 204.081C45.6396 204.081 35.0883 214.027 22.9783 207.317V204.68Z" fill="#4C40F7"/>
<path d="M23.8176 190.421C23.8176 190.421 33.6666 175.922 46.1192 185.747C46.1192 185.747 35.5679 198.21 23.8176 193.177V190.421Z" fill="#4C40F7"/>
<path d="M26.0957 173.765C26.0957 173.765 36.5271 159.385 48.6372 170.409C48.6372 170.409 36.2873 182.872 26.0957 176.401V173.765Z" fill="#4C40F7"/>
<path d="M29.5728 158.876C29.5728 158.876 41.9227 145.361 52.6967 150.745C52.6967 150.745 39.8287 165.098 29.0333 162.462L29.5728 158.876Z" fill="#4C40F7"/>
<path d="M33.8893 144.762C33.8893 144.762 48.1404 128.208 56.4308 133.738C56.4308 133.738 45.9308 146.576 32.8787 147.86L33.8893 144.762Z" fill="#4C40F7"/>
<path d="M40.1199 128.392C40.1199 128.392 52.5939 114.877 61.7064 118.233C61.7064 118.233 51.0352 132.252 38.4455 132.612L40.1199 128.392Z" fill="#4C40F7"/>
<path d="M45.7595 113.08C45.7595 113.08 59.5482 100.138 65.5433 102.415C65.5433 102.415 55.5914 116.795 45.16 115.956L45.7595 113.08Z" fill="#4C40F7"/>
<path d="M51.275 98.9401C51.275 98.9401 63.1452 83.4779 69.6242 84.6762C69.6242 84.6762 62.4258 98.4608 51.275 100.511V98.9401Z" fill="#4C40F7"/>
<path d="M57.2615 79.8745C57.2615 79.8745 67.7529 68.0243 73.4225 68.0499C73.4225 68.0499 65.1407 83.8845 56.829 83.7389L57.2615 79.8745Z" fill="#4C40F7"/>
<path d="M60.8072 67.1812L70.9431 42.4964C70.9431 42.4964 71.4484 64.8103 59.5182 71.7604L60.8072 67.1812Z" fill="#4C40F7"/>
<path d="M64.9224 39.9586C64.9224 39.9586 66.601 19.3438 65.5219 17.6662C65.5219 17.6662 72.7673 34.806 64.8538 49.0656L64.9224 39.9586Z" fill="#4C40F7"/>
<path d="M30.3779 254.379C30.3779 254.379 19.8694 247.87 13.065 263.795C13.065 263.795 22.4173 270 31.6154 258.441L30.3779 254.379Z" fill="#4C40F7"/>
<path d="M25.7574 236.615C25.7574 236.615 12.868 230.739 6.61598 247.365C6.61598 247.365 16.5721 254.213 26.9307 240.817L25.7574 236.615Z" fill="#4C40F7"/>
<path d="M23.8176 221.73C23.8176 221.73 14.5852 210.942 0.693718 221.73C0.693718 221.73 9.44652 231.197 23.8176 224.486V221.73Z" fill="#4C40F7"/>
<path d="M22.6614 204.68C22.6614 204.68 13.3091 193.417 0 204.081C0 204.081 10.5513 214.027 22.6614 207.317V204.68Z" fill="#4C40F7"/>
<path d="M23.8176 190.832C23.8176 190.832 17.2572 174.591 2.99754 181.575C2.99754 181.575 10.7055 195.976 23.2352 193.528L23.8176 190.832Z" fill="#4C40F7"/>
<path d="M26.9222 173.683C26.9222 173.683 20.4004 157.16 5.93941 164.82C5.93941 164.82 14.795 179.966 26.2798 176.234L26.9222 173.683Z" fill="#4C40F7"/>
<path d="M30.9646 158.957C30.9646 158.957 28.3952 140.842 16.4051 139.22C16.4051 139.22 18.9487 158.324 29.3502 162.223L30.9646 158.957Z" fill="#4C40F7"/>
<path d="M34.1933 144.796C34.1933 144.796 33.1913 122.97 23.278 122.208C23.278 122.208 23.612 138.775 33.0757 147.886L34.1933 144.796Z" fill="#4C40F7"/>
<path d="M41.1476 127.78C41.1476 127.78 38.1929 109.631 28.7292 107.414C28.7292 107.414 29.9026 124.99 40.2098 132.235L41.1476 127.78Z" fill="#4C40F7"/>
<path d="M46.8815 113.23C46.8815 113.23 46.783 94.3224 41.002 91.5449C41.002 91.5449 37.4178 108.663 45.2071 115.643L46.8815 113.23Z" fill="#4C40F7"/>
<path d="M51.7161 98.7261C51.7161 98.7261 50.9067 79.2582 44.9202 76.515C44.9202 76.515 42.8733 91.9215 50.8211 100.001L51.7161 98.7261Z" fill="#4C40F7"/>
<path d="M58.0965 81.428C58.0965 81.428 58.0623 65.5934 53.7886 61.8787C53.7886 61.8787 49.5407 79.224 55.8655 84.612L58.0965 81.428Z" fill="#4C40F7"/>
<path d="M60.3061 66.4023L56.1481 40.0485C56.1481 40.0485 50.4999 61.6434 60.5031 71.1612L60.3061 66.4023Z" fill="#4C40F7"/>
<path d="M61.1155 40.2068C61.1155 40.2068 50.4442 22.4893 50.6626 20.5207C50.6626 20.5207 51.7974 39.0899 65.2221 48.3381L61.1155 40.2068Z" fill="#4C40F7"/>
<path d="M62.3659 34.9729C62.3659 34.9729 52.2942 9.80885 47.7379 7.77176C47.7379 7.77176 62.1261 15.0813 63.2052 34.2539L62.3659 34.9729Z" fill="#4C40F7"/>
<path d="M56.7776 83.8887L56.0882 83.679C64.5883 55.9772 66.708 38.3153 62.0618 33.8859L62.5543 33.3638C67.4831 38.0371 65.4833 55.5064 56.7776 83.8887Z" fill="#444053"/>
<path d="M33.3711 148.75L32.352 148.387C33.2555 145.849 34.2276 143.272 35.2467 140.735C44.1195 118.635 51.6732 98.0756 56.5164 82.2924L57.4028 81.8645C52.5511 97.6776 45.13 119.024 36.2488 141.154C35.2339 143.645 34.2661 146.208 33.3711 148.75Z" fill="#444053"/>
<path d="M54.8164 301.224C54.6793 301.074 40.9035 285.569 31.2986 259.1C25.6706 243.603 22.5385 227.312 22.019 210.835C21.3596 190.237 25.6846 167.238 33.0928 146.345L33.8979 147.287C17.2658 194.178 23.8732 234.359 32.6389 258.556C42.1411 284.786 55.7627 300.12 55.8955 300.274L54.8164 301.224Z" fill="#444053"/>
<path d="M270.091 268.305C270.091 268.305 260.383 280.147 268.091 298.049L190.583 331.643L183.145 333.201L179.719 318.223L182.01 299.32V288.989L270.091 268.305Z" fill="#D5D6DB"/>
<path d="M25.3335 260.653L132.611 241.108L274.758 263.739L186.468 295.506L25.3335 260.653Z" fill="#4C40F7"/>
<path d="M25.3335 260.653L132.611 241.108L274.758 263.739L186.468 295.506L25.3335 260.653Z" fill="#4C40F7"/>
<path d="M25.3335 260.649C25.3335 260.649 15.3003 279.646 26.8622 297.193L185.946 331.643C185.946 331.643 176.071 316.511 186.455 295.506L25.3335 260.649Z" fill="#4C40F7"/>
<path opacity="0.1" d="M25.3335 260.649C25.3335 260.649 15.3003 279.646 26.8622 297.193L185.946 331.643C185.946 331.643 176.071 316.511 186.455 295.506L25.3335 260.649Z" fill="black"/>
<path opacity="0.1" d="M30.0738 267.235C30.0738 267.235 24.34 281.136 30.0738 290.131Z" fill="black"/>
<path d="M185.946 331.643L274.758 293.769C274.758 293.769 279.726 294.839 276.514 298.476C273.303 302.114 187.659 335.281 187.659 335.281L26.8622 297.193L185.946 331.643Z" fill="#4C40F7"/>
<path opacity="0.1" d="M185.946 331.643L274.758 293.769C274.758 293.769 279.726 294.839 276.514 298.476C273.303 302.114 187.659 335.281 187.659 335.281L26.8622 297.193L185.946 331.643Z" fill="black"/>
<path opacity="0.1" d="M178.666 299.332C178.666 299.332 170.102 309.603 178.666 325.01Z" fill="black"/>
<path opacity="0.1" d="M220.129 299.159L181.714 311.967L181.85 312.373L220.265 299.565L220.129 299.159Z" fill="black"/>
<path opacity="0.1" d="M227.824 297.884L181.702 315.412L181.854 315.812L227.976 298.284L227.824 297.884Z" fill="black"/>
<path opacity="0.1" d="M234.89 297.823L181.959 319.475L182.122 319.871L235.052 298.219L234.89 297.823Z" fill="black"/>
<path opacity="0.1" d="M242.574 295.969L182.577 323.054L182.753 323.444L242.75 296.359L242.574 295.969Z" fill="black"/>
<path opacity="0.1" d="M249.03 295.977L183.052 324.799L183.224 325.191L249.201 296.37L249.03 295.977Z" fill="black"/>
<path opacity="0.1" d="M263.15 293.581L184.047 327.726L184.217 328.119L263.32 293.974L263.15 293.581Z" fill="black"/>
<path opacity="0.3" d="M65.1878 262.742L140.554 246.907L186.468 255.68L124.71 275.581L65.1878 262.742Z" fill="white"/>
<path d="M274.758 263.739C274.758 263.739 278.655 265.31 276.369 267.736C274.082 270.163 186.455 295.506 186.455 295.506L274.758 263.739Z" fill="#4C40F7"/>
<path d="M312.609 227.144C312.609 227.144 302.905 238.981 310.613 256.887L233.106 290.482L225.667 292.049L222.242 277.07L224.567 258.171V247.827L312.609 227.144Z" fill="#D5D6DB"/>
<path d="M67.8557 219.488L175.129 199.947L317.281 222.578L228.99 254.345L67.8557 219.488Z" fill="#3A3768"/>
<path d="M67.8385 219.488C67.8385 219.488 57.8011 238.485 69.363 256.031L228.447 290.482C228.447 290.482 218.576 275.337 228.973 254.341L67.8385 219.488Z" fill="#3A3768"/>
<path opacity="0.1" d="M67.8385 219.488C67.8385 219.488 57.8011 238.485 69.363 256.031L228.447 290.482C228.447 290.482 218.576 275.337 228.973 254.341L178.666 243.458L67.8385 219.488Z" fill="black"/>
<path opacity="0.1" d="M72.5918 226.074C72.5918 226.074 66.8622 239.97 72.5918 248.97Z" fill="black"/>
<path d="M228.464 290.482L317.281 252.608C317.281 252.608 322.244 253.678 319.032 257.315C315.82 260.953 230.177 294.12 230.177 294.12L69.3801 256.031L228.464 290.482Z" fill="#3A3768"/>
<path opacity="0.1" d="M228.464 290.482L317.281 252.608C317.281 252.608 322.244 253.678 319.032 257.315C315.82 260.953 230.177 294.12 230.177 294.12L69.3801 256.031L228.464 290.482Z" fill="black"/>
<path opacity="0.1" d="M221.184 258.171C221.184 258.171 212.62 268.442 221.184 283.849Z" fill="black"/>
<path opacity="0.1" d="M262.651 258.002L224.235 270.811L224.371 271.217L262.786 258.408L262.651 258.002Z" fill="black"/>
<path opacity="0.1" d="M270.35 256.725L224.229 274.253L224.381 274.653L270.502 257.125L270.35 256.725Z" fill="black"/>
<path opacity="0.1" d="M277.41 256.658L224.48 278.31L224.642 278.706L277.573 257.054L277.41 256.658Z" fill="black"/>
<path opacity="0.1" d="M285.099 254.805L225.102 281.891L225.279 282.281L285.276 255.195L285.099 254.805Z" fill="black"/>
<path opacity="0.1" d="M291.549 254.808L225.571 283.629L225.743 284.022L291.721 255.2L291.549 254.808Z" fill="black"/>
<path opacity="0.1" d="M305.673 252.412L226.569 286.556L226.739 286.949L305.843 252.804L305.673 252.412Z" fill="black"/>
<path opacity="0.45" d="M107.71 221.581L183.077 205.746L228.99 214.519L167.233 234.419L107.71 221.581Z" fill="white"/>
<path d="M317.281 222.578C317.281 222.578 321.173 224.148 318.891 226.571C316.608 228.993 228.99 254.341 228.99 254.341L317.281 222.578Z" fill="#3A3768"/>
<path d="M316.634 180.056C316.634 180.056 306.926 201.312 314.634 219.214L237.127 243.394L229.705 244.964L226.28 229.986L228.571 211.083V200.739L316.634 180.056Z" fill="#D5D6DB"/>
<path d="M71.8938 172.404L179.171 152.859L321.323 175.489L233.028 207.257L71.8938 172.404Z" fill="#4C40F7"/>
<path d="M71.8938 172.399C71.8938 172.399 61.8435 191.397 73.4054 208.943L232.489 243.394C232.489 243.394 222.614 228.248 233.011 207.257L71.8938 172.399Z" fill="#4C40F7"/>
<path opacity="0.1" d="M71.8938 172.399C71.8938 172.399 61.8435 191.397 73.4054 208.943L232.489 243.394C232.489 243.394 222.614 228.248 233.011 207.257L71.8938 172.399Z" fill="black"/>
<path opacity="0.1" d="M76.6342 178.986C76.6342 178.986 70.9003 192.886 76.6342 201.882Z" fill="black"/>
<path d="M232.506 243.394L321.319 214.934C321.319 214.934 326.286 216.004 323.074 219.642C319.863 223.28 234.219 247.031 234.219 247.031L73.4225 208.943L232.506 243.394Z" fill="#4C40F7"/>
<path opacity="0.1" d="M232.506 243.394L321.319 214.934C321.319 214.934 326.286 216.004 323.074 219.642C319.863 223.28 234.219 247.031 234.219 247.031L73.4225 208.943L232.506 243.394Z" fill="black"/>
<path opacity="0.1" d="M225.226 211.083C225.226 211.083 216.662 221.354 225.226 236.76Z" fill="black"/>
<path opacity="0.1" d="M266.694 210.913L228.279 223.721L228.414 224.127L266.83 211.319L266.694 210.913Z" fill="black"/>
<path opacity="0.1" d="M274.391 209.638L228.269 227.166L228.421 227.566L274.543 210.038L274.391 209.638Z" fill="black"/>
<path opacity="0.1" d="M281.447 209.573L228.516 231.225L228.679 231.621L281.609 209.969L281.447 209.573Z" fill="black"/>
<path opacity="0.1" d="M289.142 207.716L229.145 234.802L229.321 235.192L289.318 208.106L289.142 207.716Z" fill="black"/>
<path opacity="0.1" d="M295.594 207.723L229.616 236.545L229.788 236.937L295.765 208.116L295.594 207.723Z" fill="black"/>
<path opacity="0.1" d="M309.716 205.33L230.613 239.475L230.783 239.867L309.886 205.723L309.716 205.33Z" fill="black"/>
<path opacity="0.3" d="M111.748 174.492L187.115 158.658L233.028 167.431L171.271 187.331L111.748 174.492Z" fill="white"/>
<path d="M321.319 175.489C321.319 175.489 325.216 177.06 322.929 179.486C320.642 181.913 233.028 207.257 233.028 207.257L321.319 175.489Z" fill="#4C40F7"/>
<path d="M132.928 45.5777C132.928 45.5777 116.656 44.5977 118.557 56.0071C118.557 56.0071 118.176 58.0228 120.004 58.9387C120.004 58.9387 120.034 58.0827 121.674 58.378C122.26 58.4785 122.855 58.5072 123.447 58.4636C124.245 58.409 125.004 58.0966 125.61 57.5735V57.5735C125.61 57.5735 130.187 55.6819 131.969 48.2011C131.969 48.2011 133.288 46.5706 133.253 46.1512L130.496 47.3238C130.496 47.3238 131.433 49.3053 130.697 50.9529C130.697 50.9529 130.607 47.3966 130.076 47.4779C129.969 47.4779 128.65 48.1669 128.65 48.1669C128.65 48.1669 130.264 51.6205 129.044 54.1284C129.044 54.1284 129.506 49.8745 128.145 48.4151L126.209 49.5449C126.209 49.5449 128.098 53.1098 126.817 56.02C126.817 56.02 127.147 51.5563 125.802 49.8188L124.047 51.1883C124.047 51.1883 125.824 54.7018 124.74 57.1155C124.74 57.1155 124.599 51.9201 123.67 51.5264C123.67 51.5264 122.132 52.8787 121.901 53.4351C121.901 53.4351 123.117 56.0028 122.359 57.3338C122.359 57.3338 121.901 53.8716 121.503 53.8545C121.503 53.8545 119.974 56.1484 119.816 57.7061C119.89 56.2538 120.343 54.8463 121.13 53.6234C120.249 53.79 119.436 54.2111 118.792 54.8345C118.792 54.8345 119.028 53.2125 121.512 53.0713C121.512 53.0713 122.775 51.3295 123.113 51.2268C123.113 51.2268 120.642 51.0171 119.148 51.6804C119.148 51.6804 120.467 50.1526 123.563 50.8245L125.276 49.4123C125.276 49.4123 122.03 48.9843 120.651 49.4593C120.651 49.4593 122.24 48.107 125.742 49.0913L127.631 47.9658C127.631 47.9658 124.86 47.3709 123.212 47.5849C123.212 47.5849 124.95 46.6476 128.183 47.6619L129.528 47.0585C129.528 47.0585 127.502 46.6605 126.907 46.5963C126.312 46.5321 126.282 46.3695 126.282 46.3695C127.568 46.1585 128.886 46.3066 130.093 46.7974C130.093 46.7974 132.984 45.7575 132.928 45.5777Z" fill="#4C40F7"/>
<path opacity="0.1" d="M361.854 92.4736C361.854 92.4736 345.582 91.4936 347.483 102.903C347.483 102.903 347.102 104.919 348.93 105.835C348.93 105.835 348.96 104.979 350.6 105.274C351.186 105.372 351.781 105.401 352.373 105.359C353.164 105.301 353.915 104.989 354.514 104.469V104.469C354.514 104.469 359.096 102.578 360.873 95.097C360.873 95.097 362.192 93.4665 362.158 93.0471L359.409 94.2197C359.409 94.2197 360.347 96.2011 359.61 97.8488C359.61 97.8488 359.52 94.2924 358.993 94.3738C358.886 94.3738 357.563 95.0628 357.563 95.0628C357.563 95.0628 359.178 98.5164 357.961 101.024C357.961 101.024 358.424 96.7703 357.058 95.311L355.122 96.4408C355.122 96.4408 357.011 100.006 355.73 102.916C355.73 102.916 356.06 98.4522 354.716 96.7147L352.964 98.0842C352.964 98.0842 354.737 101.598 353.654 104.011C353.654 104.011 353.512 98.816 352.583 98.4222C352.583 98.4222 351.05 99.7746 350.815 100.331C350.815 100.331 352.031 102.899 351.277 104.23C351.277 104.23 350.815 100.767 350.421 100.75C350.421 100.75 348.892 103.044 348.733 104.602C348.808 103.149 349.262 101.741 350.052 100.519C349.17 100.686 348.356 101.107 347.71 101.73C347.71 101.73 347.95 100.108 350.429 99.9672C350.429 99.9672 351.692 98.2254 352.031 98.1184C352.031 98.1184 349.564 97.913 348.065 98.5763C348.065 98.5763 349.384 97.0485 352.48 97.7204L354.193 96.3081C354.193 96.3081 350.943 95.8802 349.568 96.3552C349.568 96.3552 351.153 95.0028 354.66 95.9872L356.544 94.8616C356.544 94.8616 353.774 94.2668 352.125 94.4807C352.125 94.4807 353.863 93.5435 357.096 94.5578L358.445 93.9543C358.445 93.9543 356.416 93.5564 355.82 93.4922C355.225 93.428 355.195 93.2653 355.195 93.2653C356.481 93.0516 357.8 93.1998 359.006 93.6933C359.006 93.6933 361.905 92.6534 361.854 92.4736Z" fill="#4C40F7"/>
<path opacity="0.1" d="M160.334 116.063C160.334 116.063 153.243 101.371 144.216 108.612C144.216 108.612 142.267 109.262 142.362 111.304C142.362 111.304 143.111 110.914 143.646 112.489C143.846 113.046 144.111 113.577 144.434 114.073C144.872 114.744 145.517 115.255 146.271 115.528C146.271 115.528 150.155 118.601 157.559 116.504C157.559 116.504 159.627 116.859 159.966 116.611L157.602 114.783C157.602 114.783 156.317 116.568 154.527 116.726C154.527 116.726 157.593 114.916 157.264 114.496C157.195 114.411 155.979 113.585 155.979 113.585C155.979 113.585 153.748 116.679 150.965 116.837C150.965 116.837 154.904 115.168 155.512 113.264L153.585 112.126C153.585 112.126 151.388 115.515 148.224 115.815C148.224 115.815 152.283 113.927 153.144 111.907L151.097 111.051C151.097 111.051 148.892 114.312 146.254 114.548C146.254 114.548 150.725 111.89 150.613 110.884C150.613 110.884 148.682 110.208 148.083 110.272C148.083 110.272 146.447 112.579 144.905 112.579C144.905 112.579 147.701 110.486 147.53 110.148C147.53 110.148 144.781 109.934 143.334 110.576C144.638 109.928 146.089 109.633 147.543 109.72C146.966 109.033 146.201 108.529 145.342 108.27C145.342 108.27 146.875 107.688 148.207 109.78C148.207 109.78 150.348 110.033 150.601 110.277C150.601 110.277 149.577 108.026 148.271 107.046C148.271 107.046 150.249 107.444 151.153 110.469L153.23 111.291C153.23 111.291 152.035 108.244 150.935 107.281C150.935 107.281 152.887 108.004 153.739 111.561L155.641 112.656C155.641 112.656 154.814 109.947 153.821 108.616C153.821 108.616 155.487 109.678 156.176 112.99L157.362 113.872C157.362 113.872 156.72 111.907 156.506 111.359C156.292 110.812 156.399 110.7 156.399 110.7C157.213 111.717 157.729 112.939 157.889 114.231C157.889 114.231 160.18 116.191 160.334 116.063Z" fill="#4C40F7"/>
<path opacity="0.1" d="M324.676 71.7175C324.676 71.7175 317.589 57.0257 308.558 64.2668C308.558 64.2668 306.614 64.9173 306.704 66.9586C306.704 66.9586 307.457 66.5735 307.988 68.1441C308.188 68.7031 308.454 69.2361 308.78 69.7318C309.217 70.4019 309.861 70.9113 310.613 71.1826V71.1826C310.613 71.1826 314.501 74.2553 321.901 72.1626C321.901 72.1626 323.969 72.5135 324.312 72.2653L321.961 70.4337C321.961 70.4337 320.676 72.2225 318.891 72.3809C318.891 72.3809 321.953 70.5663 321.623 70.1469C321.554 70.0613 320.338 69.2354 320.338 69.2354C320.338 69.2354 318.111 72.3295 315.324 72.4879C315.324 72.4879 319.268 70.8188 319.876 68.9187L317.919 67.7889C317.919 67.7889 315.726 71.174 312.557 71.4779C312.557 71.4779 316.617 69.5863 317.482 67.5663L315.431 66.7104C315.431 66.7104 313.225 69.9757 310.592 70.2068C310.592 70.2068 315.058 67.5492 314.947 66.5478C314.947 66.5478 313.02 65.8673 312.42 65.9358C312.42 65.9358 310.785 68.2382 309.239 68.2382C309.239 68.2382 312.039 66.1455 311.868 65.8074C311.868 65.8074 309.119 65.5934 307.667 66.2354C308.971 65.5873 310.423 65.2922 311.877 65.3795C311.302 64.6917 310.538 64.1873 309.68 63.9287C309.68 63.9287 311.213 63.3466 312.545 65.4394C312.545 65.4394 314.686 65.6961 314.938 65.9401C314.938 65.9401 313.915 63.6847 312.604 62.7047C312.604 62.7047 314.583 63.107 315.486 66.1498L317.568 66.9715C317.568 66.9715 316.373 63.9201 315.272 62.9572C315.272 62.9572 317.225 63.6805 318.073 67.2368L319.978 68.3324C319.978 68.3324 319.148 65.6277 318.154 64.2924C318.154 64.2924 319.824 65.3538 320.509 68.6662L321.696 69.5478C321.696 69.5478 321.058 67.5834 320.839 67.0357C320.621 66.4879 320.732 66.3809 320.732 66.3809C321.544 67.3979 322.059 68.62 322.218 69.9116C322.218 69.9116 324.543 71.8545 324.676 71.7175Z" fill="#4C40F7"/>
<path opacity="0.1" d="M347.325 144.389C347.325 144.389 340.238 129.693 331.193 136.934C331.193 136.934 329.249 137.585 329.339 139.626C329.339 139.626 330.093 139.241 330.624 140.812C330.822 141.371 331.087 141.904 331.412 142.399C331.848 143.07 332.492 143.579 333.245 143.85C333.245 143.85 337.133 146.927 344.537 144.83C344.537 144.83 346.601 145.185 346.943 144.933L344.58 143.106C344.58 143.106 343.295 144.894 341.505 145.053C341.505 145.053 344.567 143.238 344.237 142.819C344.169 142.733 342.952 141.907 342.952 141.907C342.952 141.907 340.726 145.001 337.938 145.164C337.938 145.164 341.882 143.491 342.49 141.591L340.559 140.452C340.559 140.452 338.366 143.842 335.197 144.141C335.197 144.141 339.257 142.25 340.122 140.23L338.071 139.374C338.071 139.374 335.865 142.635 333.232 142.87C333.232 142.87 337.702 140.213 337.591 139.207C337.591 139.207 335.66 138.526 335.06 138.595C335.06 138.595 333.424 140.897 331.879 140.897C331.879 140.897 334.679 138.805 334.508 138.466C334.508 138.466 331.759 138.252 330.307 138.894C331.613 138.247 333.066 137.952 334.521 138.039C333.945 137.35 333.18 136.845 332.32 136.588C332.32 136.588 333.853 136.001 335.184 138.098C335.184 138.098 337.326 138.351 337.578 138.595C337.578 138.595 336.555 136.344 335.249 135.359C335.249 135.359 337.227 135.762 338.131 138.805L340.208 139.626C340.208 139.626 339.013 136.575 337.912 135.616C337.912 135.616 339.865 136.335 340.713 139.896L342.618 140.987C342.618 140.987 341.788 138.282 340.794 136.947C340.794 136.947 342.464 138.009 343.154 141.325L344.34 142.181C344.34 142.181 343.698 140.217 343.483 139.669C343.269 139.121 343.376 139.014 343.376 139.014C344.191 140.03 344.705 141.253 344.862 142.545C344.862 142.545 347.192 144.518 347.325 144.389Z" fill="#4C40F7"/>
<path opacity="0.1" d="M86.4789 335.589C91.916 335.589 96.3237 335.097 96.3237 334.489C96.3237 333.882 91.916 333.389 86.4789 333.389C81.0418 333.389 76.6342 333.882 76.6342 334.489C76.6342 335.097 81.0418 335.589 86.4789 335.589Z" fill="#4C40F7"/>
<path opacity="0.1" d="M21.942 316.896C27.3791 316.896 31.7867 316.403 31.7867 315.796C31.7867 315.189 27.3791 314.696 21.942 314.696C16.5049 314.696 12.0972 315.189 12.0972 315.796C12.0972 316.403 16.5049 316.896 21.942 316.896Z" fill="#4C40F7"/>
<path opacity="0.1" d="M135.673 348.004C141.11 348.004 145.518 347.512 145.518 346.904C145.518 346.297 141.11 345.805 135.673 345.805C130.236 345.805 125.828 346.297 125.828 346.904C125.828 347.512 130.236 348.004 135.673 348.004Z" fill="#4C40F7"/>
<path opacity="0.1" d="M387.766 320.961C393.203 320.961 397.61 320.469 397.61 319.862C397.61 319.254 393.203 318.762 387.766 318.762C382.328 318.762 377.921 319.254 377.921 319.862C377.921 320.469 382.328 320.961 387.766 320.961Z" fill="#4C40F7"/>
<path opacity="0.1" d="M305.843 315.625C311.28 315.625 315.688 315.132 315.688 314.525C315.688 313.918 311.28 313.425 305.843 313.425C300.406 313.425 295.998 313.918 295.998 314.525C295.998 315.132 300.406 315.625 305.843 315.625Z" fill="#4C40F7"/>
<path opacity="0.1" d="M252.846 341.653C259.277 341.653 264.49 340.759 264.49 339.655C264.49 338.551 259.277 337.656 252.846 337.656C246.416 337.656 241.203 338.551 241.203 339.655C241.203 340.759 246.416 341.653 252.846 341.653Z" fill="#4C40F7"/>
<path d="M258.041 319.566C258.041 319.566 241.828 327.937 250.204 337.797C250.204 337.797 250.992 339.937 253.27 339.787C253.27 339.787 252.816 338.957 254.555 338.294C255.174 338.055 255.762 337.743 256.306 337.365C257.043 336.857 257.593 336.122 257.874 335.272V335.272C257.874 335.272 261.188 330.839 258.619 322.635C258.619 322.635 258.953 320.315 258.662 319.939L256.692 322.639C256.692 322.639 258.726 324.004 258.961 326.011C258.961 326.011 256.82 322.643 256.392 323.016C256.298 323.093 255.416 324.492 255.416 324.492C255.416 324.492 258.944 326.884 259.206 329.991C259.206 329.991 257.219 325.639 255.073 325.019L253.844 327.21C253.844 327.21 257.698 329.555 258.126 333.081C258.126 333.081 255.887 328.609 253.6 327.706L252.697 330.021C252.697 330.021 256.414 332.384 256.756 335.32C256.756 335.32 253.647 330.411 252.53 330.565C252.53 330.565 251.827 332.739 251.921 333.411C251.921 333.411 254.546 335.165 254.594 336.89C254.594 336.89 252.17 333.83 251.797 334.031C251.797 334.031 251.643 337.108 252.388 338.709C252.388 338.709 251.104 336.424 251.313 334.031C250.562 334.695 250.022 335.564 249.759 336.531C249.759 336.531 249.061 334.84 251.361 333.282C251.361 333.282 251.579 330.89 251.844 330.595C251.844 330.595 249.356 331.81 248.299 333.3C248.299 333.3 248.688 331.078 252.063 329.974L252.919 327.629C252.919 327.629 249.545 329.058 248.504 330.317C248.504 330.317 249.254 328.113 253.185 327.056L254.349 324.916C254.349 324.916 251.352 325.926 249.887 327.056C249.887 327.056 251.022 325.16 254.709 324.287L255.656 322.939C255.656 322.939 253.48 323.713 252.872 323.991C252.264 324.27 252.144 324.133 252.144 324.133C253.256 323.193 254.606 322.58 256.045 322.361C256.045 322.361 258.191 319.712 258.041 319.566Z" fill="#4C40F7"/>
<path d="M306.16 161.465C303.359 153.86 287.943 153.145 281.255 155.084C276.501 156.466 266.481 158.024 261.128 158.807L260.781 158.478C261.475 158.272 261.492 157.767 261.407 157.019C261.357 156.031 261.371 155.042 261.449 154.057C264.73 155.076 267.65 152.666 267.65 152.666C271.504 150.954 270.468 143.628 271.204 141.625C271.757 140.127 272.352 131.302 272.617 126.903H272.673L272.703 125.427C272.742 124.789 272.759 124.417 272.759 124.417C272.759 124.417 273.136 113.658 273.872 111.479C274.557 109.476 275.114 99.3852 275.2 97.7846C275.2 97.6476 275.2 97.5749 275.2 97.5749L275.144 96.6419C275.182 95.9615 275.2 95.204 275.195 94.408C275.195 90.7489 274.814 86.1398 274.767 85.3951C274.767 85.2882 274.767 85.1598 274.767 85.0057C274.797 83.4436 274.6 75.6205 267.941 72.6633C265.487 71.5678 262.537 70.2625 259.681 68.9914C258.944 62.6362 257.261 56.3153 257.407 49.913C257.407 48.9501 257.493 47.9872 257.587 47.0285C257.587 47.3067 257.557 47.5891 257.553 47.8844C257.553 48.505 257.553 49.1298 257.553 49.7503C257.805 41.7432 260.833 33.6933 260.55 25.8573C260.524 26.6234 260.469 27.3937 260.396 28.164C260.544 25.5136 260.266 22.8566 259.574 20.2939C259.317 19.3909 258.97 18.4579 258.229 17.8545C257.529 17.3685 256.726 17.0507 255.883 16.9258C253.856 16.4075 251.798 16.0243 249.72 15.7789C249.405 14.8133 248.936 13.9045 248.333 13.087C243.991 7.12981 237.559 1.53209 229.954 0.248211C226.138 -0.393729 221.749 0.141221 219.154 2.86733C218.883 3.10681 218.629 3.36416 218.392 3.63765C216.996 5.30242 216.396 7.4893 214.966 9.14978C214.872 9.26105 214.765 9.36376 214.662 9.47075C211.862 11.9743 207.498 12.4964 204.385 14.7432C203.836 15.1466 203.322 15.5946 202.848 16.0827C201.593 17.3251 200.468 18.6916 199.49 20.1612C198.09 22.1298 196.651 24.1797 196.206 26.5292C195.311 31.2368 198.518 35.7004 199.113 40.4379C200.441 51.0385 188.703 60.4451 190.926 70.9044C191.519 73.474 192.829 75.8229 194.703 77.679C190.125 81.8217 186.228 85.8402 186.228 85.8402V86.0799H185.505L185.577 86.9358H185.505L185.903 91.5792L185.505 98.3409C185.505 98.3409 185.505 98.4137 185.505 98.5506V98.5849V98.7689C185.505 98.7689 185.505 98.8417 185.505 98.9786H185.53C185.663 101.456 186.19 110.367 186.815 112.245C187.552 114.424 187.924 125.183 187.924 125.183C187.924 125.183 188.738 140.388 189.483 142.399C190.228 144.411 189.17 151.716 193.037 153.441C194.168 154.308 195.508 154.863 196.921 155.05C196.724 156.65 196.848 157.81 197.486 158.174C197.759 158.334 198.069 158.423 198.386 158.431C198.123 158.82 197.89 159.227 197.688 159.65C196.153 159.49 194.645 159.135 193.2 158.593C189.046 156.882 175.262 153.03 171.258 155.739C167.254 158.448 157.619 160.904 162.068 171.809C166.517 182.713 168.59 182.987 168.59 182.987C169.96 183.981 171.161 185.187 172.149 186.561C173.485 188.568 185.933 193.16 189.046 193.16C190.369 193.139 191.692 193.205 193.007 193.357C193.007 193.357 189.628 196.318 190.078 198.039C190.528 199.759 189.05 213.531 189.05 213.531C189.05 213.531 192.476 216.98 193.941 212.456L193.992 212.525C194.266 212.897 195.748 214.579 198.535 212.456C199.676 211.591 200.888 210.824 202.158 210.163L215.656 208.254C217.063 208.166 218.474 208.156 219.882 208.224C222.023 208.399 224.126 207.133 225.449 206.153C228.245 207.214 231.388 208.374 232.883 208.797C235.915 209.653 249.849 213.389 253.108 212.221C253.785 211.952 254.387 211.523 254.863 210.971L257.972 211.07L256.516 211.361C256.516 211.361 259.351 211.408 263.205 211.459L263.042 211.553L267.877 211.511C274.951 211.575 282.899 211.596 283.944 211.361C285.58 210.997 294.08 211.254 296.585 211.361H297.283C297.283 211.361 306.622 209.499 302.768 200.029C299.805 192.753 290.697 190.639 286.654 190.057C287.793 189.83 288.774 189.655 289.425 189.552C292.247 189.124 297.728 186.556 298.174 185.679C298.619 184.802 303.214 182.255 304.4 180.805C305.586 179.354 308.973 169.07 306.16 161.465ZM228.802 182.747L228.344 182.897L228.035 183L227.444 183.582C226.973 183.265 226.468 182.932 225.941 182.589C226.871 182.645 227.826 182.7 228.802 182.747Z" fill="url(#paint0_linear)"/>
<path d="M256.105 137.623C256.105 137.623 262.657 154.742 266.382 153.03C270.108 151.318 269.097 144.043 269.808 142.049C270.519 140.054 271.307 124.93 271.307 124.93C271.307 124.93 271.667 114.231 272.378 112.066C273.037 110.076 273.572 100.04 273.662 98.4608C273.662 98.3238 273.662 98.2511 273.662 98.2511L272.956 85.8402L268.956 84.8431L259.681 88.2668L258.396 95.5977L257.895 98.4608L257.681 99.6805L256.105 137.623Z" fill="#BE6F72"/>
<path opacity="0.1" d="M258.263 134.756C258.263 134.756 264.515 139.87 266.4 140.32C268.284 140.769 269.44 144.757 269.44 144.757" fill="black"/>
<path d="M204.869 138.372C204.869 138.372 198.317 155.491 194.592 153.779C190.866 152.067 191.877 144.792 191.166 142.797C190.455 140.803 189.667 125.679 189.667 125.679C189.667 125.679 189.307 114.98 188.596 112.815C187.937 110.825 187.402 100.789 187.312 99.2097C187.312 99.0728 187.312 99 187.312 99L188.023 86.5892L192.022 85.592L201.297 89.0157L202.582 96.3466L203.083 99.2097L203.297 100.429L204.869 138.372Z" fill="#BE6F72"/>
<path d="M247.532 46.7632H232.909V69.5435H247.532V46.7632Z" fill="#3E373A"/>
<path opacity="0.1" d="M247.532 46.7632H232.909V69.5435H247.532V46.7632Z" fill="black"/>
<path d="M202.299 155.422C202.299 155.422 197.302 160.913 199.156 161.91C201.01 162.907 213.005 181.596 213.005 181.596C213.005 181.596 252.401 186.445 259.831 179.17C267.26 171.894 267.11 158.897 267.11 158.897C267.11 158.897 261.141 160.181 260.49 159.484C259.839 158.786 256.264 155.422 256.264 155.422C256.264 155.422 205.725 152.358 202.299 155.422Z" fill="#4B4B5B"/>
<path opacity="0.02" d="M202.299 155.422C202.299 155.422 197.302 160.913 199.156 161.91C201.01 162.907 213.005 181.596 213.005 181.596C213.005 181.596 252.401 186.445 259.831 179.17C267.26 171.894 267.11 158.897 267.11 158.897C267.11 158.897 261.141 160.181 260.49 159.484C259.839 158.786 256.264 155.422 256.264 155.422C256.264 155.422 205.725 152.358 202.299 155.422Z" fill="black"/>
<path d="M273.221 86.02L260.375 96.291L256.491 96.5734L255.065 96.6762L231.114 98.4308L206.278 96.6162L202.582 96.3466L197.872 96.0043L188.023 86.5891C188.023 86.5891 194.994 79.1255 201.1 74.0884C203.507 72.0984 205.781 70.4893 207.438 69.8559L207.721 69.7575C208.763 69.3512 209.694 68.7028 210.436 67.8659C215.257 62.8973 219.715 50.6362 219.715 50.6362C219.715 50.6362 240.985 39.6548 238.415 54.0599C235.846 68.465 247.978 64.9044 247.978 64.9044L251.977 66.7275L253.557 67.4508L257.587 69.2953L266.678 73.4636C273.812 76.7461 273.221 86.02 273.221 86.02Z" fill="#BE6F72"/>
<path opacity="0.1" d="M230.117 62.3666C240.681 62.3666 249.245 53.8076 249.245 43.2496C249.245 32.6916 240.681 24.1327 230.117 24.1327C219.552 24.1327 210.988 32.6916 210.988 43.2496C210.988 53.8076 219.552 62.3666 230.117 62.3666Z" fill="black"/>
<path opacity="0.1" d="M273.251 99.6377H187.312C187.312 99.5007 187.312 99.428 187.312 99.428L188.023 87.0171C188.023 87.0171 194.994 79.5535 201.1 74.5164L255.056 72.3766L257.565 69.7318L266.657 73.9001C273.795 77.1783 273.221 86.4522 273.221 86.4522C273.221 86.4522 274.197 97.1983 273.251 99.6377Z" fill="black"/>
<path d="M273.251 99.2097H187.312C187.312 99.0728 187.312 99 187.312 99L188.023 86.5892C188.023 86.5892 194.994 79.1255 201.1 74.0884L255.056 71.9486L257.565 69.3039L266.657 73.4722C273.795 76.7504 273.221 86.0243 273.221 86.0243C273.221 86.0243 274.197 96.7703 273.251 99.2097Z" fill="#E7C7CA"/>
<path opacity="0.1" d="M216.341 64.408C216.341 64.408 229.898 81.6719 247.956 64.0528C266.014 46.4337 249.956 103.352 249.956 103.352L210.988 107.974L216.341 64.408Z" fill="black"/>
<path d="M216.341 65.2639C216.341 65.2639 229.898 82.5278 247.956 64.9087C266.014 47.2896 249.956 104.208 249.956 104.208L210.988 108.83L216.341 65.2639Z" fill="#E7C7CA"/>
<path opacity="0.1" d="M253.536 68.2939L254.97 90.1584L256.508 97.4337L257.681 102.997C257.681 102.997 260.679 145.793 259.822 147.933C258.966 150.073 260.25 151.785 260.43 152.923C260.61 154.061 260.25 156.92 260.392 158.204C260.533 159.488 260.392 160.057 257.111 159.599C253.831 159.141 249.258 158.345 249.258 158.345C249.258 158.345 237.696 159.201 233.701 157.776C229.705 156.351 222.139 156.347 222.139 156.347C222.139 156.347 210.718 156.633 207.01 156.205C203.301 155.777 201.297 160.772 198.874 159.342C196.45 157.913 201.726 144.081 203.438 140.084C205.151 136.087 201.156 125.962 201.156 125.962L206.295 97.4722L207.438 91.0143V70.7118L207.721 70.6134C208.763 70.2072 209.694 69.5588 210.436 68.7218L211.72 89.1527L251.973 90.582V67.5877" fill="black"/>
<path d="M253.536 67.438L254.97 89.3024L256.508 96.5777L257.681 102.141C257.681 102.141 260.679 144.937 259.822 147.077C258.966 149.217 260.25 150.929 260.43 152.067C260.61 153.205 260.25 156.064 260.392 157.348C260.533 158.632 260.392 159.201 257.111 158.743C253.831 158.285 249.258 157.489 249.258 157.489C249.258 157.489 237.696 158.345 233.701 156.92C229.705 155.495 222.139 155.491 222.139 155.491C222.139 155.491 210.718 155.777 207.01 155.349C203.301 154.922 201.297 159.916 198.874 158.486C196.45 157.057 201.726 143.225 203.438 139.228C205.151 135.231 201.156 125.106 201.156 125.106L206.295 96.6163L207.438 90.1583V69.8559L207.721 69.7575C208.763 69.3512 209.694 68.7028 210.436 67.8659L211.72 88.2967L251.973 89.7261V66.7318" fill="#E7C7CA"/>
<path opacity="0.1" d="M258.165 21.8088C257.921 20.9144 257.583 19.9857 256.88 19.3866C256.21 18.9053 255.435 18.5887 254.619 18.4622C252.666 17.9489 250.68 17.5686 248.676 17.3238C248.389 16.3735 247.956 15.4739 247.391 14.6576C243.194 8.73465 236.985 3.14977 229.68 1.88729C225.856 1.22395 221.424 1.81882 218.974 4.83166C217.63 6.48786 217.052 8.6833 215.694 10.3095C213.078 13.4679 208.354 13.8573 205.057 16.301C203.297 17.5849 202.021 19.4465 200.775 21.2525C199.426 23.2083 198.039 25.2454 197.61 27.582C196.754 32.2511 199.841 36.7018 200.411 41.4137C201.696 51.9543 190.391 61.3053 192.527 71.7047C193.774 77.7689 199.379 82.0399 205.177 84.2054C207.22 84.9715 209.553 85.7332 210.508 87.6933C210.937 88.5492 211.009 89.5378 211.412 90.4023C212.765 93.2867 217.214 93.398 219.604 91.2967C221.993 89.1954 222.747 85.7974 223.03 82.6262C224.177 68.7774 218.627 55.0956 219.274 41.2125C219.467 37.0143 220.649 32.2511 224.413 30.3509C229.479 27.7832 235.572 32.0628 241.148 31.2453C243.786 37.6611 244.346 44.7418 242.749 51.4921C241.863 55.1854 240.33 58.7675 240.218 62.5763C240.051 68.3752 243.182 73.6733 245.888 78.8003C246.469 79.759 246.857 80.8216 247.031 81.9287C247.074 83.0519 246.865 84.1705 246.419 85.2026C244.89 89.3152 242.252 93.1326 241.953 97.5107C241.865 98.0217 241.98 98.5469 242.274 98.9743C242.575 99.2596 242.965 99.4345 243.379 99.4707C248.003 100.262 252.003 96.1669 254.26 92.0542C256.776 87.5118 258.242 82.4638 258.55 77.281C259.017 68.5677 255.891 59.9957 256.084 51.2739C256.306 41.358 260.79 31.3737 258.165 21.8088Z" fill="black"/>
<path d="M258.593 21.3809C258.349 20.4864 258.011 19.5578 257.309 18.9586C256.638 18.4774 255.863 18.1607 255.048 18.0342C253.094 17.5209 251.109 17.1406 249.104 16.8958C248.817 15.9456 248.384 15.0459 247.819 14.2297C243.623 8.30669 237.413 2.72181 230.108 1.45933C226.284 0.795991 221.852 1.39085 219.403 4.40369C218.058 6.0599 217.48 8.25534 216.122 9.88158C213.506 13.0399 208.783 13.4294 205.485 15.873C203.725 17.1569 202.449 19.0185 201.203 20.8245C199.854 22.7803 198.467 24.8174 198.039 27.1541C197.182 31.8231 200.27 36.2739 200.839 40.9857C202.124 51.5264 190.819 60.8773 192.956 71.2767C194.202 77.3409 199.807 81.612 205.605 83.7774C207.648 84.5435 209.982 85.3053 210.937 87.2653C211.365 88.1212 211.438 89.1098 211.84 89.9743C213.193 92.8588 217.643 92.97 220.032 90.8687C222.421 88.7675 223.175 85.3695 223.458 82.1983C224.605 68.3495 219.056 54.6676 219.702 40.7846C219.895 36.5863 221.077 31.8231 224.841 29.9229C229.907 27.3552 236 31.6348 241.576 30.8174C244.214 37.2331 244.774 44.3139 243.177 51.0642C242.291 54.7575 240.758 58.3395 240.647 62.1483C240.48 67.9472 243.61 73.2454 246.316 78.3723C246.897 79.331 247.285 80.3936 247.459 81.5007C247.502 82.624 247.293 83.7426 246.847 84.7746C245.318 88.8873 242.681 92.7047 242.381 97.0827C242.293 97.5938 242.408 98.1189 242.702 98.5464C243.004 98.8316 243.393 99.0066 243.807 99.0428C248.432 99.8345 252.431 95.7389 254.688 91.6262C257.204 87.0838 258.67 82.0359 258.979 76.8531C259.445 68.1398 256.319 59.5677 256.512 50.8459C256.735 40.9301 261.218 30.9458 258.593 21.3809Z" fill="#3E373A"/>
<path d="M249.134 210.869L266.121 211.412L263.685 198.822L250.671 200.058L249.134 210.869Z" fill="#C3C7D9"/>
<path d="M301.771 181.027C300.627 182.452 296.204 185.02 295.775 185.876C295.347 186.732 290.067 189.3 287.352 189.728C284.637 190.155 276.077 192.013 274.506 193.01C273.38 193.729 264.34 196.006 258.4 197.268C256.792 197.649 255.164 197.941 253.523 198.146C250.954 198.287 222.837 188.73 222.837 188.73L228.258 183.167L228.558 183.064C230.091 182.546 237.174 180.154 241.105 179.016C245.532 177.732 250.671 172.455 250.671 172.455C250.671 172.455 258.233 169.887 259.236 169.601C260.238 169.314 256.666 159.616 256.666 159.616C256.666 159.616 273.08 157.34 279.503 155.409C285.926 153.479 300.773 154.194 303.483 161.756C306.194 169.318 302.931 179.602 301.771 181.027Z" fill="#4B4B5B"/>
<path d="M226.973 205.134C226.973 205.134 223.693 208.558 220.409 208.275C217.124 207.993 205.64 209.131 205.64 209.131C203.558 209.961 201.609 211.09 199.854 212.482C197.169 214.596 195.743 212.91 195.478 212.551L195.431 212.482C194.001 216.98 190.72 213.552 190.72 213.552C190.72 213.552 192.146 199.857 191.71 198.146C191.273 196.434 194.532 193.494 194.532 193.494L198.386 192.514L208.149 190.014L222.139 194.863L226.973 205.134Z" fill="#E7C7CA"/>
<path opacity="0.1" d="M198.368 192.514L195.478 212.551L195.431 212.482C194.001 216.98 190.72 213.552 190.72 213.552C190.72 213.552 192.146 199.857 191.71 198.146C191.273 196.434 194.532 193.494 194.532 193.494L198.368 192.514Z" fill="black"/>
<path opacity="0.1" d="M218.572 135.518C218.572 135.518 226.134 138.086 232.703 135.518Z" fill="black"/>
<path opacity="0.1" d="M244.389 140.371C244.389 140.371 247.528 141.937 249.956 140.371Z" fill="black"/>
<path opacity="0.1" d="M244.389 144.086C244.389 144.086 249.669 144.792 250.671 143.367Z" fill="black"/>
<path opacity="0.1" d="M242.676 152.067C242.676 152.067 252.594 150.783 255.056 149.071Z" fill="black"/>
<path opacity="0.1" d="M212.414 149.071C212.414 149.071 217.981 152.208 222.122 152.067Z" fill="black"/>
<path opacity="0.1" d="M258.396 197.268C256.787 197.649 255.159 197.941 253.519 198.146C250.949 198.287 222.833 188.73 222.833 188.73L228.254 183.167L228.554 183.064C229.41 183.668 230.112 184.185 230.613 184.579C232.973 186.437 235.251 184.01 236.107 184.01C236.964 184.01 244.385 190.143 244.385 190.143C244.385 190.143 251.236 191.713 252.38 193.138C253.523 194.563 257.518 194.281 258.229 195.278C258.443 195.586 258.469 196.344 258.396 197.268Z" fill="black"/>
<path d="M205.64 160.198C205.64 160.198 198.711 160.596 194.716 158.914C190.72 157.233 177.446 153.351 173.592 156.077C169.738 158.803 160.458 161.213 164.74 172.057C169.022 182.902 171.022 183.184 171.022 183.184C172.347 184.177 173.504 185.376 174.448 186.736C175.733 188.735 187.723 193.297 190.72 193.297C193.718 193.297 198.998 193.297 206.419 198.432C213.84 203.568 220.55 204.141 220.55 204.141C220.55 204.141 229.971 207.993 232.904 208.849C235.838 209.705 249.241 213.411 252.384 212.272C255.527 211.134 257.523 203.996 257.523 203.996C257.523 203.996 258.949 197.576 258.233 196.579C257.518 195.582 253.523 195.864 252.384 194.439C251.245 193.014 244.389 191.444 244.389 191.444C244.389 191.444 236.985 185.307 236.129 185.307C235.272 185.307 232.994 187.729 230.635 185.876C225.935 182.397 220.997 179.251 215.857 176.461C210.436 173.606 205.64 160.198 205.64 160.198Z" fill="#4B4B5B"/>
<path opacity="0.1" d="M191.71 164.337C192.943 164.085 194.218 164.121 195.436 164.442C196.653 164.764 197.78 165.362 198.728 166.19C202.154 169.044 213.682 174.775 213.682 174.775" fill="black"/>
<path opacity="0.1" d="M277.362 164.157C277.362 164.157 262.087 166.468 259.235 169.605Z" fill="black"/>
<path d="M294.919 211.412H294.247C291.832 211.327 283.648 211.07 282.072 211.412C280.218 211.84 255.664 211.412 255.664 211.412L260.464 210.415C260.464 210.415 258.683 204.175 259.814 203.658C259.814 203.658 253.39 199.429 258.233 196.575C263.077 193.72 268.297 194.923 268.297 194.923L280.454 190.806L282.788 190.014C282.788 190.014 296.491 190.729 300.199 200.144C303.907 209.559 294.919 211.412 294.919 211.412Z" fill="#E7C7CA"/>
<path opacity="0.1" d="M294.919 211.412H294.247C298.233 208.126 307.252 198.12 280.454 190.827L282.788 190.036C282.788 190.036 296.491 190.75 300.199 200.165C303.907 209.581 294.919 211.412 294.919 211.412Z" fill="black"/>
<path d="M269.727 200.32C270.141 200.32 270.476 199.984 270.476 199.571C270.476 199.157 270.141 198.822 269.727 198.822C269.313 198.822 268.977 199.157 268.977 199.571C268.977 199.984 269.313 200.32 269.727 200.32Z" fill="#4B4B5B"/>
<path d="M265.372 201.556C265.786 201.556 266.121 201.221 266.121 200.807C266.121 200.394 265.786 200.058 265.372 200.058C264.958 200.058 264.622 200.394 264.622 200.807C264.622 201.221 264.958 201.556 265.372 201.556Z" fill="#4B4B5B"/>
<g opacity="0.1">
<path opacity="0.1" d="M244.154 42.5435C244.32 37.8363 243.482 33.1476 241.696 28.7889C236.129 29.6191 230.031 25.3267 224.961 27.8944C221.21 29.7946 220.032 34.5578 219.822 38.7561C219.771 39.8645 219.762 40.9729 219.784 42.0813C219.784 41.6876 219.784 41.2896 219.822 40.8959C220.019 36.6976 221.197 31.9344 224.961 30.0342C230.031 27.4665 236.12 31.7461 241.696 30.9287C243.208 34.6207 244.041 38.5555 244.154 42.5435V42.5435Z" fill="black"/>
<path opacity="0.1" d="M201.015 41.7603C201.088 40.8278 201.069 39.8904 200.959 38.9615C200.505 35.1954 198.445 31.5963 198.073 27.9244C197.593 32.3538 200.415 36.6077 200.959 41.1013C201.015 41.3324 201.015 41.5378 201.015 41.7603Z" fill="black"/>
<path opacity="0.1" d="M223.578 80.1655C223.312 83.3409 222.563 86.7347 220.152 88.8402C217.741 90.9458 213.3 90.8302 211.96 87.9458C211.532 87.0899 211.468 86.0927 211.052 85.2368C210.102 83.2767 207.764 82.515 205.721 81.7489C199.919 79.5792 194.322 75.3295 193.076 69.2482C192.964 68.6973 192.888 68.1398 192.849 67.5792C192.743 68.8531 192.82 70.1356 193.076 71.388C194.322 77.4522 199.927 81.719 205.721 83.8887C207.764 84.6548 210.102 85.4165 211.052 87.3766C211.481 88.2325 211.553 89.2211 211.96 90.0856C213.309 92.97 217.758 93.0813 220.152 90.98C222.546 88.8787 223.291 85.4807 223.578 82.3053C223.708 80.6339 223.752 78.9569 223.71 77.281C223.71 78.2525 223.655 79.2111 223.578 80.1655Z" fill="black"/>
<path opacity="0.1" d="M256.653 48.8174C256.653 49.4379 256.653 50.0542 256.653 50.6705C256.893 42.7104 259.814 34.7076 259.527 26.9144C259.304 34.1212 256.816 41.4907 256.653 48.8174Z" fill="black"/>
<path opacity="0.1" d="M247.464 81.0171C247.569 80.5093 247.602 79.9892 247.562 79.4722C247.39 78.3646 247.001 77.3017 246.419 76.3438C243.944 71.6362 241.122 66.8174 240.788 61.592C240.788 61.8145 240.758 62.02 240.753 62.2596C240.582 68.0542 243.713 73.3566 246.419 78.4836C246.879 79.2777 247.23 80.1297 247.464 81.0171V81.0171Z" fill="black"/>
<path opacity="0.1" d="M259.116 74.8245C258.796 80.0094 257.32 85.057 254.795 89.5977C252.534 93.7104 248.539 97.806 243.91 97.0143C243.495 96.9785 243.105 96.8018 242.805 96.5135C242.718 96.4155 242.65 96.3024 242.603 96.1797C242.552 96.5135 242.509 96.8516 242.484 97.194C242.395 97.7037 242.51 98.2278 242.805 98.6533C243.105 98.9416 243.495 99.1183 243.91 99.1541C248.539 99.9458 252.534 95.8502 254.795 91.7375C257.32 87.1968 258.796 82.1492 259.116 76.9643C259.167 75.9629 259.171 74.9658 259.141 73.9686C259.133 74.2553 259.133 74.5378 259.116 74.8245Z" fill="black"/>
</g>
<path opacity="0.1" d="M259.814 203.658C259.814 203.658 270.652 208.203 277.799 198.145" stroke="black" stroke-miterlimit="10"/>
<path opacity="0.1" d="M261.946 211.601C261.946 211.601 270.797 205.849 282.072 211.412" stroke="black" stroke-miterlimit="10"/>
<path opacity="0.1" d="M202.698 210.295C202.698 210.295 206.415 201.916 216.341 208.305" stroke="black" stroke-miterlimit="10"/>
<path opacity="0.1" d="M190.648 86.3752L198.227 79.5278C198.227 79.5278 227.616 77.602 228.832 87.5863C228.832 87.5863 239.25 75.7489 261.162 78.3852L270.433 85.7632L244.809 97.0014L219.908 105.633L201.567 97.4294L190.648 86.3752Z" fill="black"/>
<path d="M190.648 86.8031L198.227 79.9558C198.227 79.9558 227.616 78.03 228.832 88.0143C228.832 88.0143 239.25 76.1769 261.162 78.8131L270.433 86.1912L244.809 97.4294L219.908 106.061L201.567 97.8573L190.648 86.8031Z" fill="#D5D6DB"/>
<path opacity="0.1" d="M187.295 87.6591L190.648 127.746L226.19 129.531L224.648 89.6148L224.618 88.9429L187.295 87.6591Z" fill="black"/>
<path d="M187.295 86.8031L190.648 126.89L226.19 128.675L224.648 88.7589L224.618 88.087L187.295 86.8031Z" fill="#4C40F7"/>
<path opacity="0.1" d="M272.061 86.8031L235.397 92.2982V132.565L271.226 127.391L272.061 86.8031Z" fill="black"/>
<path d="M272.061 85.9472L235.397 91.4422V131.709L271.226 126.535L272.061 85.9472Z" fill="#4C40F7"/>
<path opacity="0.3" d="M263.415 95.7732L243.61 97.9729L244.042 104.718L263.402 102.603L263.415 95.7732Z" fill="white"/>
<path d="M192.575 148.357L194.591 153.779C194.591 153.779 197.589 156.347 200.869 155.063C204.149 153.779 207.01 153.141 208.436 151.892C209.862 150.642 211.862 144.364 211.862 144.364C211.862 144.364 213.861 137.516 215.857 135.805C217.852 134.093 223.137 110.508 215.857 112.815C208.577 115.121 203.01 136.519 203.01 136.519C203.01 136.519 201.726 138.086 199.871 138.231C198.017 138.377 194.305 137.944 193.589 139.515C192.874 141.086 190.433 145.22 192.575 148.357Z" fill="#BE6F72"/>
<path opacity="0.1" d="M235.397 92.2939C233.519 92.7166 231.569 92.6945 229.702 92.2293C227.835 91.7641 226.103 90.8688 224.644 89.6148L226.19 129.526C226.19 129.526 229.83 133.464 235.397 132.565V92.2939Z" fill="black"/>
<path d="M235.397 91.4379C233.519 91.8607 231.569 91.8386 229.702 91.3734C227.835 90.9082 226.103 90.0129 224.644 88.7589L226.19 128.67C226.19 128.67 229.83 132.608 235.397 131.709V91.4379Z" fill="#4C40F7"/>
<path opacity="0.1" d="M235.397 91.4379C233.519 91.8607 231.569 91.8386 229.702 91.3734C227.835 90.9082 226.103 90.0129 224.644 88.7589L226.19 128.67C226.19 128.67 229.83 132.608 235.397 131.709V91.4379Z" fill="black"/>
<path opacity="0.1" d="M236.253 86.9401C236.253 86.9401 251.168 82.3823 255.056 83.0243Z" fill="black"/>
<path opacity="0.1" d="M219.57 84.9501C219.57 84.9501 205.113 81.5264 202.698 82.4979Z" fill="black"/>
<path opacity="0.1" d="M245.657 87.5093C245.657 87.5093 255.63 83.8545 259.235 85.592Z" fill="black"/>
<path opacity="0.1" d="M240.634 179.191C242.179 178.031 243.824 177.01 245.55 176.14C248.119 174.903 252.829 171.693 252.829 171.693" fill="black"/>
<path opacity="0.1" d="M202.698 135.518C202.698 135.518 196.441 140.632 194.562 141.081C192.682 141.531 191.521 145.519 191.521 145.519" fill="black"/>
<path d="M268.382 147.595L266.387 153.03C266.387 153.03 263.389 155.598 260.105 154.314C256.82 153.03 253.968 152.392 252.538 151.143C251.108 149.893 249.112 143.615 249.112 143.615C249.112 143.615 247.117 136.767 245.117 135.056C243.117 133.344 237.837 109.759 245.117 112.066C252.397 114.372 257.964 135.77 257.964 135.77C257.964 135.77 259.248 137.337 261.103 137.482C262.957 137.628 266.669 137.195 267.385 138.766C268.1 140.337 270.523 144.471 268.382 147.595Z" fill="#BE6F72"/>
<path opacity="0.1" d="M264.884 137.598C264.884 137.598 268.973 140.225 268.956 143.367Z" fill="black"/>
<path d="M230.185 61.4294C240.749 61.4294 249.314 52.8704 249.314 42.3124C249.314 31.7544 240.749 23.1954 230.185 23.1954C219.621 23.1954 211.057 31.7544 211.057 42.3124C211.057 52.8704 219.621 61.4294 230.185 61.4294Z" fill="#BE6F72"/>
<path d="M218.174 37.1812C220.494 36.8174 222.528 35.4693 224.747 34.6947C229.71 32.9529 235.2 34.1469 240.223 35.7175C242.15 36.321 244.106 37.0014 246.128 37.0014C248.149 37.0014 250.294 36.1755 251.326 34.4337C252.277 32.8331 252.093 30.7532 251.292 29.0713C250.491 27.3894 249.151 26.0371 247.798 24.7618C243.344 20.5592 237.82 16.6305 231.71 17.0585C229.252 17.234 226.901 18.1113 224.64 19.0827C221.793 20.3088 219.021 21.7036 216.341 23.2596C214.281 24.4536 210.466 26.0499 209.279 28.2325C206.582 33.1498 213.977 37.8402 218.174 37.1812Z" fill="#3E373A"/>
<path opacity="0.1" d="M251.326 32.6362C250.294 34.378 248.149 35.204 246.128 35.204C244.107 35.204 242.15 34.5492 240.218 33.9458C235.195 32.3752 229.71 31.1769 224.742 32.923C222.529 33.6976 220.49 35.0628 218.169 35.4051C214.786 35.9358 209.339 32.9914 208.748 29.2468C208.085 33.5735 214.401 37.2796 218.169 36.689C220.49 36.3253 222.529 34.9772 224.742 34.2069C229.71 32.4608 235.195 33.6591 240.218 35.2297C242.15 35.8331 244.102 36.5136 246.128 36.4879C248.153 36.4622 250.294 35.6662 251.326 33.9201C251.861 32.9702 252.072 31.8719 251.926 30.7917C251.859 31.4421 251.655 32.0708 251.326 32.6362Z" fill="black"/>
<path d="M406.56 264.569C406.56 264.569 409.099 267.886 405.387 272.897C401.674 277.909 398.617 282.137 399.85 285.261C399.85 285.261 405.451 275.957 410.007 275.825C414.564 275.692 411.566 270.163 406.56 264.569Z" fill="#4C40F7"/>
<path opacity="0.1" d="M406.56 264.569C406.781 264.89 406.956 265.24 407.078 265.609C411.523 270.83 413.896 275.705 409.618 275.825C405.635 275.94 400.861 283.057 399.717 284.85C399.754 284.995 399.798 285.138 399.85 285.278C399.85 285.278 405.451 275.974 410.007 275.842C414.564 275.709 411.566 270.163 406.56 264.569Z" fill="black"/>
<path d="M411.271 268.797C411.271 269.966 411.138 270.912 410.979 270.912C410.821 270.912 410.684 269.966 410.684 268.797C410.684 267.629 410.847 268.181 411.009 268.181C411.172 268.181 411.271 267.629 411.271 268.797Z" fill="#FFD037"/>
<path d="M412.893 270.193C411.87 270.749 410.975 271.087 410.898 270.946C410.821 270.805 411.587 270.235 412.611 269.662C413.634 269.088 413.232 269.508 413.309 269.662C413.386 269.816 413.921 269.632 412.893 270.193Z" fill="#FFD037"/>
<path d="M393.14 264.569C393.14 264.569 390.6 267.886 394.313 272.897C398.026 277.909 401.083 282.137 399.846 285.261C399.846 285.261 394.249 275.957 389.688 275.825C385.128 275.692 388.147 270.163 393.14 264.569Z" fill="#4C40F7"/>
<path opacity="0.1" d="M393.14 264.569C392.919 264.89 392.744 265.24 392.622 265.609C388.177 270.83 385.804 275.705 390.082 275.825C394.06 275.94 398.839 283.057 399.983 284.85C399.947 284.996 399.901 285.139 399.846 285.278C399.846 285.278 394.249 275.974 389.688 275.842C385.128 275.709 388.147 270.163 393.14 264.569Z" fill="black"/>
<path d="M388.421 268.797C388.421 269.966 388.549 270.912 388.712 270.912C388.875 270.912 389.007 269.966 389.007 268.797C389.007 267.629 388.84 268.181 388.682 268.181C388.524 268.181 388.421 267.629 388.421 268.797Z" fill="#FFD037"/>
<path d="M386.802 270.193C387.825 270.749 388.72 271.087 388.798 270.946C388.875 270.805 388.108 270.235 387.085 269.662C386.061 269.088 386.464 269.508 386.387 269.662C386.31 269.816 385.774 269.632 386.802 270.193Z" fill="#FFD037"/>
<path opacity="0.1" d="M399.85 310.648C414.513 310.648 426.4 308.825 426.4 306.578C426.4 304.33 414.513 302.508 399.85 302.508C385.187 302.508 373.3 304.33 373.3 306.578C373.3 308.825 385.187 310.648 399.85 310.648Z" fill="#4C40F7"/>
<path d="M413.514 280.789L413.386 281.825L413.206 283.288L413.133 283.9L412.953 285.364L412.876 285.976L412.701 287.435L410.667 304.083C410.487 305.568 408.059 306.728 405.126 306.728H394.57C391.637 306.728 389.213 305.568 389.029 304.083L386.995 287.435L386.815 285.976L386.742 285.364L386.562 283.9L386.485 283.288L386.31 281.825L386.181 280.789C386.083 279.933 387.393 279.24 389.055 279.24H410.645C412.303 279.24 413.617 279.946 413.514 280.789Z" fill="#65617D"/>
<path d="M413.386 281.825L413.21 283.288H386.489L386.31 281.825H413.386Z" fill="#9D9CB5"/>
<path d="M413.133 283.9L412.958 285.364H386.742L386.562 283.9H413.133Z" fill="#9D9CB5"/>
<path d="M412.881 285.976L412.701 287.439H386.995L386.819 285.976H412.881Z" fill="#9D9CB5"/>
</g>
<defs>
<linearGradient id="paint0_linear" x1="234.082" y1="214.802" x2="234.082" y2="-6.79654e-06" gradientUnits="userSpaceOnUse">
<stop stop-color="#808080" stop-opacity="0.25"/>
<stop offset="0.54" stop-color="#808080" stop-opacity="0.12"/>
<stop offset="1" stop-color="#808080" stop-opacity="0.1"/>
</linearGradient>
<clipPath id="clip0">
<rect width="438" height="348" fill="white"/>
</clipPath>
</defs>
</svg>
